grf
version=1
nRows=11
nColumns=73
inDegrees=yes
endheader
time	ground_force_1_vx	ground_force_1_vy	ground_force_1_vz	ground_force_1_px	ground_force_1_py	ground_force_1_pz	ground_moment_1_mx	ground_moment_1_my	ground_moment_1_mz	ground_force_2_vx	ground_force_2_vy	ground_force_2_vz	ground_force_2_px	ground_force_2_py	ground_force_2_pz	ground_moment_2_mx	ground_moment_2_my	ground_moment_2_mz	ground_force_3_vx	ground_force_3_vy	ground_force_3_vz	ground_force_3_px	ground_force_3_py	ground_force_3_pz	ground_moment_3_mx	ground_moment_3_my	ground_moment_3_mz	ground_force_4_vx	ground_force_4_vy	ground_force_4_vz	ground_force_4_px	ground_force_4_py	ground_force_4_pz	ground_moment_4_mx	ground_moment_4_my	ground_moment_4_mz	ground_force_5_vx	ground_force_5_vy	ground_force_5_vz	ground_force_5_px	ground_force_5_py	ground_force_5_pz	ground_moment_5_mx	ground_moment_5_my	ground_moment_5_mz	ground_force_6_vx	ground_force_6_vy	ground_force_6_vz	ground_force_6_px	ground_force_6_py	ground_force_6_pz	ground_moment_6_mx	ground_moment_6_my	ground_moment_6_mz	ground_force_7_vx	ground_force_7_vy	ground_force_7_vz	ground_force_7_px	ground_force_7_py	ground_force_7_pz	ground_moment_7_mx	ground_moment_7_my	ground_moment_7_mz	ground_force_8_vx	ground_force_8_vy	ground_force_8_vz	ground_force_8_px	ground_force_8_py	ground_force_8_pz	ground_moment_8_mx	ground_moment_8_my	ground_moment_8_mz
0.396000	0.000000	0.000000	0.000000	0.000000	0.000000	0.000000	0.000000	0.000000	0.000000	-57.933107	517.415424	-14.750067	0.577883	0.000000	0.404035	-0.000000	0.391557	0.000000	-57.525920	516.396218	-15.057173	0.584058	0.000000	0.407317	-0.000000	0.236153	0.000000	0.000000	0.000000	0.000000	0.000000	0.000000	0.000000	0.000000	0.000000	0.000000	-59.545211	516.115189	-15.196205	0.584002	0.000000	0.403782	-0.000000	0.263029	0.000000	0.000000	0.000000	0.000000	0.000000	0.000000	0.000000	0.000000	0.000000	0.000000	0.000000	0.000000	0.000000	0.000000	0.000000	0.000000	0.000000	0.000000	0.000000	-59.412665	514.006644	-15.265871	0.580538	0.000000	0.404082	-0.000000	0.527275	0.000000
0.397000	0.000000	0.000000	0.000000	0.000000	0.000000	0.000000	0.000000	0.000000	0.000000	-57.251360	515.942832	-14.688695	0.576941	0.000000	0.404115	-0.000000	0.370589	0.000000	-56.865876	514.961209	-14.976507	0.583073	0.000000	0.407409	-0.000000	0.225352	0.000000	0.000000	0.000000	0.000000	0.000000	0.000000	0.000000	0.000000	0.000000	0.000000	-58.871293	514.692286	-15.143846	0.583003	0.000000	0.403875	-0.000000	0.252665	0.000000	0.000000	0.000000	0.000000	0.000000	0.000000	0.000000	0.000000	0.000000	0.000000	0.000000	0.000000	0.000000	0.000000	0.000000	0.000000	0.000000	0.000000	0.000000	-58.699873	512.560720	-15.229068	0.579603	0.000000	0.404158	-0.000000	0.513715	0.000000
0.398000	0.000000	0.000000	0.000000	0.000000	0.000000	0.000000	0.000000	0.000000	0.000000	-56.580756	514.455999	-14.616113	0.576001	0.000000	0.404196	-0.000000	0.350424	0.000000	-56.210908	513.510466	-14.886455	0.582091	0.000000	0.407503	-0.000000	0.214478	0.000000	0.000000	0.000000	0.000000	0.000000	0.000000	0.000000	0.000000	0.000000	0.000000	-58.200968	513.255375	-15.085926	0.582006	0.000000	0.403967	-0.000000	0.243270	0.000000	2.134397	6.273735	0.589539	0.120884	0.000000	0.370771	-0.000000	0.171269	-0.000000	0.000000	0.000000	0.000000	0.000000	0.000000	0.000000	0.000000	0.000000	0.000000	-57.993476	511.099392	-15.186929	0.578670	0.000000	0.404234	-0.000000	0.500090	0.000000
0.399000	0.000000	0.000000	0.000000	0.000000	0.000000	0.000000	0.000000	0.000000	0.000000	-55.921914	512.955300	-14.531865	0.575062	0.000000	0.404279	-0.000000	0.331626	0.000000	-55.562006	512.042820	-14.786999	0.581111	0.000000	0.407598	-0.000000	0.203624	0.000000	0.000000	0.000000	0.000000	0.000000	0.000000	0.000000	0.000000	0.000000	0.000000	-57.534338	511.804091	-15.020746	0.581011	0.000000	0.404058	-0.000000	0.234132	0.000000	0.000000	0.000000	0.000000	0.000000	0.000000	0.000000	0.000000	0.000000	0.000000	0.000000	0.000000	0.000000	0.000000	0.000000	0.000000	0.000000	0.000000	0.000000	-57.293705	509.622680	-15.137553	0.577736	0.000000	0.404311	-0.000000	0.485760	0.000000
0.400000	0.000000	0.000000	0.000000	0.000000	0.000000	0.000000	0.000000	0.000000	0.000000	-55.275616	511.441074	-14.435739	0.574121	0.000000	0.404364	-0.000000	0.315103	0.000000	-54.920490	510.557306	-14.678664	0.580132	0.000000	0.407695	-0.000000	0.193330	0.000000	0.000000	0.000000	0.000000	0.000000	0.000000	0.000000	0.000000	0.000000	0.000000	-56.871719	510.338151	-14.947134	0.580017	0.000000	0.404149	-0.000000	0.224636	0.000000	0.000000	0.000000	0.000000	0.000000	0.000000	0.000000	0.000000	0.000000	0.000000	0.000000	0.000000	0.000000	0.000000	0.000000	0.000000	0.000000	0.000000	0.000000	-56.600778	508.130993	-15.079406	0.576803	0.000000	0.404388	-0.000000	0.470354	0.000000
0.401000	0.000000	0.000000	0.000000	0.000000	0.000000	0.000000	0.000000	0.000000	0.000000	-54.642209	509.913182	-14.327820	0.573179	0.000000	0.404453	-0.000000	0.301574	0.000000	-54.287436	509.052951	-14.562346	0.579156	0.000000	0.407793	-0.000000	0.184166	0.000000	0.000000	0.000000	0.000000	0.000000	0.000000	0.000000	0.000000	0.000000	0.000000	-56.213969	508.857480	-14.864534	0.579026	0.000000	0.404240	-0.000000	0.214645	0.000000	0.000000	0.000000	0.000000	0.000000	0.000000	0.000000	0.000000	0.000000	0.000000	0.000000	0.000000	0.000000	0.000000	0.000000	0.000000	0.000000	0.000000	0.000000	-55.915358	506.625076	-15.011468	0.575868	0.000000	0.404466	-0.000000	0.454085	0.000000
0.402000	0.000000	0.000000	0.000000	0.000000	0.000000	0.000000	0.000000	0.000000	0.000000	-54.021054	508.370659	-14.208751	0.572236	0.000000	0.404545	-0.000000	0.291172	0.000000	-53.663186	507.528509	-14.439245	0.578181	0.000000	0.407892	-0.000000	0.176323	0.000000	0.000000	0.000000	0.000000	0.000000	0.000000	0.000000	0.000000	0.000000	0.000000	-55.562398	507.362125	-14.772970	0.578037	0.000000	0.404331	-0.000000	0.204568	0.000000	0.000000	0.000000	0.000000	0.000000	0.000000	0.000000	0.000000	0.000000	0.000000	0.000000	0.000000	0.000000	0.000000	0.000000	0.000000	0.000000	0.000000	0.000000	-55.238513	505.105670	-14.933365	0.574933	0.000000	0.404544	-0.000000	0.437674	0.000000
0.403000	0.000000	0.000000	0.000000	0.000000	0.000000	0.000000	0.000000	0.000000	0.000000	-53.410448	506.811891	-14.079882	0.571291	0.000000	0.404642	-0.000000	0.283553	0.000000	-53.047241	505.982561	-14.310903	0.577207	0.000000	0.407992	-0.000000	0.169529	0.000000	0.000000	0.000000	0.000000	0.000000	0.000000	0.000000	0.000000	0.000000	0.000000	-54.918331	505.851990	-14.672928	0.577050	0.000000	0.404423	-0.000000	0.195033	-0.000000	0.000000	0.000000	0.000000	0.000000	0.000000	0.000000	0.000000	0.000000	0.000000	0.000000	0.000000	0.000000	0.000000	0.000000	0.000000	0.000000	0.000000	0.000000	-54.571311	503.573161	-14.845310	0.573998	0.000000	0.404622	-0.000000	0.421984	0.000000
0.404000	0.000000	0.000000	0.000000	0.000000	0.000000	0.000000	0.000000	0.000000	0.000000	-52.808020	505.235157	-13.943225	0.570348	0.000000	0.404743	-0.000000	0.278342	0.000000	-52.438557	504.413970	-14.179208	0.576234	0.000000	0.408093	-0.000000	0.163311	0.000000	0.000000	0.000000	0.000000	0.000000	0.000000	0.000000	0.000000	0.000000	0.000000	-54.282581	504.326393	-14.565295	0.576065	0.000000	0.404514	-0.000000	0.186440	-0.000000	0.000000	0.000000	0.000000	0.000000	0.000000	0.000000	0.000000	0.000000	0.000000	0.000000	0.000000	0.000000	0.000000	0.000000	0.000000	0.000000	0.000000	0.000000	-53.914295	502.027146	-14.748031	0.573062	0.000000	0.404700	-0.000000	0.407569	0.000000
0.405000	0.000000	0.000000	0.000000	0.000000	0.000000	0.000000	0.000000	0.000000	0.000000	-52.211349	503.639141	-13.801228	0.569408	0.000000	0.404847	-0.000000	0.275465	0.000000	-51.836059	502.822363	-14.046191	0.575264	0.000000	0.408194	-0.000000	0.157394	0.000000	0.000000	0.000000	0.000000	0.000000	0.000000	0.000000	0.000000	0.000000	0.000000	-53.655123	502.783957	-14.451348	0.575082	0.000000	0.404605	-0.000000	0.178714	-0.000000	0.000000	0.000000	0.000000	0.000000	0.000000	0.000000	0.000000	0.000000	0.000000	0.000000	0.000000	0.000000	0.000000	0.000000	0.000000	0.000000	0.000000	0.000000	-53.267166	500.466331	-14.642767	0.572127	0.000000	0.404777	-0.000000	0.394434	0.000000
0.406000	0.000000	0.000000	0.000000	0.000000	0.000000	0.000000	0.000000	0.000000	0.000000	-51.618609	502.023292	-13.656398	0.568476	0.000000	0.404955	-0.000000	0.275141	0.000000	-51.239148	501.208442	-13.913657	0.574297	0.000000	0.408297	-0.000000	0.151929	0.000000	0.000000	0.000000	0.000000	0.000000	0.000000	0.000000	0.000000	0.000000	0.000000	-53.035164	501.223247	-14.332751	0.574102	0.000000	0.404695	-0.000000	0.171444	-0.000000	0.000000	0.000000	0.000000	0.000000	0.000000	0.000000	0.000000	0.000000	0.000000	0.000000	0.000000	0.000000	0.000000	0.000000	0.000000	0.000000	0.000000	0.000000	-52.628853	498.889169	-14.531255	0.571196	0.000000	0.404853	-0.000000	0.382175	0.000000
